<svg width="786" height="245" viewBox="0 0 786 245" fill="none" xmlns="http://www.w3.org/2000/svg">
<g clip-path="url(#clip0_123_4)">
<path d="M30.2071 144.875C25.6945 140.766 22.6682 136.02 21.1282 130.639C19.6239 125.225 19.6239 119.812 21.1282 114.398C22.6682 108.951 25.6766 104.189 30.1534 100.113C34.7018 95.9707 39.9487 93.2152 45.8939 91.845C51.8391 90.4753 57.7844 90.4753 63.7295 91.845C69.6748 93.2152 74.9039 95.9546 79.4161 100.064L90.5907 110.239L107.137 95.1717L95.9623 84.9965C91.45 80.887 88.4235 76.1417 86.8833 70.7604C85.3794 65.3465 85.3617 59.9489 86.8298 54.5677C88.3343 49.1538 91.3603 44.3759 95.9089 40.2339C100.422 36.1246 105.651 33.385 111.596 32.0153C117.541 30.6455 123.468 30.6618 129.377 32.0641C135.323 33.4339 140.552 36.1735 145.064 40.2829C149.577 44.3922 152.585 49.1538 154.09 54.5677C155.63 59.9489 155.647 65.3465 154.143 70.7604C152.675 76.2069 149.684 80.9848 145.172 85.0943L134.051 95.2209L150.544 110.239L161.664 100.113C166.177 96.0033 171.388 93.2478 177.297 91.845C183.243 90.4753 189.17 90.4919 195.079 91.8942C201.025 93.2639 206.271 96.0198 210.82 100.162C215.333 104.271 218.341 109.033 219.845 114.447C221.385 119.828 221.385 125.209 219.845 130.59C218.341 136.004 215.333 140.766 210.82 144.875C206.271 149.017 201.025 151.773 195.079 153.143C189.17 154.48 183.243 154.463 177.297 153.094C171.424 151.724 166.231 148.985 161.718 144.875L150.597 134.749L134.051 149.816L145.172 159.943C149.684 164.052 152.675 168.797 154.143 174.179C155.647 179.592 155.647 185.007 154.143 190.421C152.639 195.834 149.613 200.612 145.064 204.754C140.588 208.831 135.358 211.57 129.377 212.973C123.432 214.342 117.487 214.342 111.542 212.973C105.668 211.603 100.475 208.864 95.9623 204.754C91.4142 200.612 88.3701 195.851 86.8298 190.469C85.3259 185.055 85.3259 179.642 86.8298 174.228C88.4059 168.814 91.4319 164.068 95.9089 159.992L107.137 149.767L90.6441 134.749L79.4161 144.973C74.9397 149.05 69.6926 151.773 63.6758 153.143C57.7305 154.513 51.7854 154.513 45.8402 153.143C39.9308 151.741 34.7198 148.985 30.2071 144.875ZM43.6375 132.645C45.679 134.504 48.0427 135.744 50.7288 136.363C53.4507 137.015 56.1548 137.032 58.8408 136.412C61.5269 135.792 63.8907 134.553 65.9321 132.694L77.1597 122.469L65.9858 112.294C63.9444 110.435 61.5628 109.212 58.8408 108.625C56.1548 108.006 53.4687 108.006 50.7826 108.625C48.0965 109.245 45.7148 110.5 43.6375 112.392C41.5961 114.251 40.2173 116.387 39.501 118.801C38.8206 121.247 38.8206 123.693 39.501 126.139C40.2173 128.617 41.5961 130.786 43.6375 132.645ZM109.393 72.7661L120.567 82.9417L131.687 72.8151C133.765 70.9235 135.126 68.771 135.77 66.3576C136.451 63.9115 136.433 61.4491 135.717 58.9705C135.036 56.5245 133.675 54.372 131.634 52.513C129.592 50.654 127.228 49.4147 124.542 48.795C121.856 48.1754 119.17 48.1754 116.484 48.795C113.834 49.3821 111.47 50.6214 109.393 52.513C107.352 54.372 105.955 56.5245 105.203 58.9705C104.522 61.4165 104.522 63.8626 105.203 66.3086C105.955 68.7546 107.352 70.9072 109.393 72.7661ZM160.882 122.519L172.002 132.645C174.044 134.504 176.389 135.76 179.04 136.412C181.726 137.032 187.54 137.015 190.191 136.363C192.877 135.744 195.258 134.488 197.335 132.596C199.413 130.705 200.774 128.552 201.419 126.139C202.135 123.725 202.153 121.295 201.472 118.849C200.792 116.403 199.431 114.251 197.389 112.392C195.312 110.5 192.931 109.245 190.244 108.625C187.558 108.006 181.726 108.006 179.04 108.625C176.425 109.245 174.08 110.5 172.002 112.392L160.882 122.519ZM109.393 192.524C111.434 194.383 113.798 195.622 116.484 196.242C119.17 196.861 121.839 196.845 124.489 196.193C127.175 195.573 129.538 194.334 131.58 192.475C133.657 190.584 135.036 188.414 135.717 185.968C136.433 183.555 136.451 181.126 135.77 178.68C135.126 176.201 133.783 174.032 131.741 172.173L120.621 162.046L109.393 172.271C107.352 174.13 105.973 176.266 105.256 178.68C104.576 181.126 104.576 183.572 105.256 186.018C105.937 188.464 107.316 190.632 109.393 192.524ZM104.075 122.519L120.567 137.537L137.113 122.469L120.621 107.451L104.075 122.519Z" fill="#7F46F0"/>
<path d="M286.047 150.555H264.004V90.9183H286.018C292.094 90.9183 297.326 92.1122 301.713 94.5C306.12 96.8684 309.517 100.285 311.905 104.75C314.293 109.196 315.487 114.515 315.487 120.707C315.487 126.92 314.293 132.258 311.905 136.723C309.537 141.188 306.149 144.614 301.742 147.002C297.336 149.371 292.104 150.555 286.047 150.555ZM278.418 138.266H285.494C288.833 138.266 291.657 137.703 293.968 136.577C296.297 135.432 298.054 133.578 299.238 131.016C300.442 128.434 301.044 124.998 301.044 120.707C301.044 116.417 300.442 113 299.238 110.457C298.035 107.895 296.258 106.051 293.909 104.925C291.58 103.779 288.707 103.207 285.29 103.207H278.418V138.266ZM317.008 90.9183H333.111L345.72 115.874H346.244L358.853 90.9183H374.956L353.145 130.637V150.555H338.819V130.637L317.008 90.9183ZM380.998 90.9183H398.848L413.99 127.842H414.689L429.831 90.9183H447.681V150.555H433.646V113.923H433.151L418.824 150.176H409.855L395.528 113.719H395.033V150.555H380.998V90.9183ZM456.672 150.555V90.9183H498.254V102.624H471.086V114.854H496.128V126.589H471.086V138.849H498.254V150.555H456.672ZM558.036 90.9183V150.555H545.806L522.074 116.136H521.695V150.555H507.281V90.9183H519.686L543.156 125.279H543.651V90.9183H558.036ZM599.335 108.798C599.14 106.662 598.277 105.002 596.743 103.818C595.229 102.615 593.064 102.013 590.249 102.013C588.386 102.013 586.833 102.255 585.59 102.741C584.348 103.226 583.416 103.896 582.795 104.75C582.174 105.585 581.853 106.546 581.834 107.633C581.795 108.526 581.97 109.312 582.358 109.991C582.766 110.671 583.348 111.273 584.105 111.797C584.882 112.302 585.813 112.748 586.901 113.136C587.988 113.525 589.211 113.864 590.57 114.156L595.695 115.32C598.645 115.961 601.247 116.815 603.499 117.883C605.77 118.951 607.672 120.222 609.206 121.697C610.759 123.173 611.933 124.871 612.729 126.793C613.525 128.715 613.933 130.87 613.952 133.258C613.933 137.024 612.982 140.256 611.099 142.955C609.216 145.653 606.508 147.72 602.974 149.157C599.461 150.594 595.219 151.312 590.249 151.312C585.26 151.312 580.912 150.564 577.204 149.07C573.496 147.575 570.613 145.304 568.555 142.256C566.498 139.208 565.44 135.354 565.381 130.695H579.184C579.3 132.617 579.815 134.219 580.727 135.5C581.64 136.781 582.892 137.752 584.484 138.412C586.095 139.072 587.959 139.402 590.075 139.402C592.016 139.402 593.666 139.14 595.025 138.616C596.403 138.092 597.461 137.364 598.199 136.432C598.937 135.5 599.315 134.432 599.335 133.229C599.315 132.103 598.966 131.142 598.286 130.346C597.607 129.531 596.558 128.832 595.141 128.249C593.744 127.647 591.958 127.094 589.783 126.589L583.552 125.134C578.388 123.949 574.321 122.037 571.351 119.397C568.381 116.737 566.905 113.146 566.925 108.623C566.905 104.934 567.895 101.702 569.895 98.9261C571.894 96.1501 574.661 93.9856 578.194 92.4325C581.727 90.8795 585.755 90.103 590.278 90.103C594.899 90.103 598.907 90.8892 602.305 92.4616C605.721 94.0147 608.371 96.1986 610.254 99.0135C612.137 101.828 613.098 105.09 613.137 108.798H599.335ZM635.646 90.9183V150.555H621.232V90.9183H635.646ZM700.983 120.737C700.983 127.298 699.721 132.86 697.197 137.422C694.674 141.984 691.257 145.449 686.947 147.817C682.657 150.186 677.843 151.37 672.504 151.37C667.146 151.37 662.322 150.176 658.032 147.788C653.742 145.401 650.335 141.935 647.811 137.393C645.307 132.831 644.055 127.279 644.055 120.737C644.055 114.175 645.307 108.613 647.811 104.051C650.335 99.4891 653.742 96.0239 658.032 93.6555C662.322 91.2872 667.146 90.103 672.504 90.103C677.843 90.103 682.657 91.2872 686.947 93.6555C691.257 96.0239 694.674 99.4891 697.197 104.051C699.721 108.613 700.983 114.175 700.983 120.737ZM686.248 120.737C686.248 116.854 685.695 113.573 684.589 110.894C683.501 108.215 681.929 106.187 679.871 104.808C677.833 103.43 675.377 102.741 672.504 102.741C669.65 102.741 667.195 103.43 665.137 104.808C663.079 106.187 661.497 108.215 660.39 110.894C659.303 113.573 658.76 116.854 658.76 120.737C658.76 124.619 659.303 127.9 660.39 130.579C661.497 133.258 663.079 135.286 665.137 136.665C667.195 138.043 669.65 138.732 672.504 138.732C675.377 138.732 677.833 138.043 679.871 136.665C681.929 135.286 683.501 133.258 684.589 130.579C685.695 127.9 686.248 124.619 686.248 120.737ZM760.153 90.9183V150.555H747.923L724.191 116.136H723.812V150.555H709.398V90.9183H721.803L745.273 125.279H745.768V90.9183H760.153Z" fill="white"/>
</g>
<defs>
<clipPath id="clip0_123_4">
<rect width="786" height="245" fill="white"/>
</clipPath>
</defs>
</svg>
