<svg width="626" height="207" viewBox="0 0 626 207" fill="none" xmlns="http://www.w3.org/2000/svg">
<g clip-path="url(#clip0_123_4)">
<path d="M10.0919 126.832C5.6302 122.547 2.63805 117.599 1.11542 111.988C-0.371805 106.342 -0.371806 100.697 1.11542 95.0511C2.63805 89.3714 5.61245 84.4061 10.0387 80.1552C14.5358 75.8359 19.7234 72.9625 25.6015 71.5337C31.4796 70.1054 37.3577 70.1054 43.2357 71.5337C49.1138 72.9625 54.2839 75.8191 58.7452 80.104L69.7935 90.7149L86.1528 75.0027L75.1045 64.3923C70.6432 60.1069 67.6509 55.1586 66.128 49.5472C64.6411 43.9017 64.6236 38.2732 66.0752 32.6618C67.5626 27.0163 70.5544 22.034 75.0516 17.7149C79.5135 13.4297 84.6833 10.573 90.5613 9.14463C96.4392 7.71626 102.3 7.73322 108.142 9.1956C114.02 10.624 119.191 13.4808 123.652 17.7659C128.114 22.051 131.088 27.0163 132.576 32.6618C134.098 38.2732 134.115 43.9017 132.628 49.5472C131.176 55.2266 128.22 60.2089 123.758 64.4942L112.763 75.054L129.07 90.7149L140.065 80.1552C144.526 75.8699 149.678 72.9965 155.521 71.5337C161.399 70.1054 167.259 70.1227 173.102 71.585C178.98 73.0133 184.168 75.8871 188.665 80.2065C193.127 84.4913 196.101 89.4566 197.588 95.1023C199.111 100.713 199.111 106.325 197.588 111.936C196.101 117.582 193.127 122.547 188.665 126.832C184.168 131.152 178.98 134.025 173.102 135.454C167.259 136.848 161.399 136.831 155.521 135.402C149.714 133.974 144.579 131.118 140.117 126.832L129.122 116.272L112.763 131.985L123.758 142.544C128.22 146.83 131.176 151.778 132.628 157.389C134.115 163.035 134.115 168.68 132.628 174.326C131.141 179.971 128.149 184.954 123.652 189.273C119.226 193.524 114.056 196.381 108.142 197.843C102.264 199.271 96.3864 199.271 90.5079 197.843C84.7008 196.415 79.5663 193.558 75.1045 189.273C70.6078 184.954 67.598 179.988 66.0752 174.377C64.5882 168.731 64.5882 163.086 66.0752 157.44C67.6334 151.795 70.6252 146.847 75.0516 142.596L86.1528 131.933L69.8464 116.272L58.7452 126.935C54.3193 131.186 49.1315 134.025 43.1826 135.454C37.3045 136.882 31.4265 136.882 25.5484 135.454C19.7058 133.991 14.5535 131.118 10.0919 126.832ZM23.3706 114.079C25.389 116.018 27.7261 117.31 30.3818 117.956C33.073 118.636 35.7465 118.653 38.4022 118.007C41.058 117.361 43.3951 116.068 45.4134 114.13L56.5143 103.468L45.4665 92.8576C43.4481 90.9189 41.0934 89.6438 38.4022 89.0314C35.7465 88.3855 33.0907 88.3855 30.435 89.0314C27.7792 89.6778 25.4244 90.9869 23.3706 92.9596C21.3522 94.8978 19.989 97.1257 19.2808 99.6424C18.608 102.193 18.608 104.744 19.2808 107.294C19.989 109.879 21.3522 112.14 23.3706 114.079ZM88.3837 51.6387L99.4316 62.2496L110.426 51.6898C112.48 49.7172 113.826 47.4726 114.463 44.956C115.136 42.4053 115.118 39.8376 114.41 37.2529C113.737 34.7023 112.392 32.4577 110.373 30.5192C108.355 28.5807 106.018 27.2883 103.362 26.6422C100.706 25.996 98.0503 25.996 95.3946 26.6422C92.7743 27.2543 90.4371 28.5467 88.3837 30.5192C86.3652 32.4577 84.984 34.7023 84.2405 37.2529C83.5679 39.8036 83.5679 42.3543 84.2405 44.9049C84.984 47.4556 86.3652 49.7002 88.3837 51.6387ZM139.291 103.519L150.286 114.079C152.304 116.018 154.623 117.327 157.244 118.007C159.899 118.653 165.648 118.636 168.269 117.956C170.924 117.31 173.279 116.001 175.333 114.028C177.387 112.056 178.733 109.811 179.37 107.294C180.078 104.778 180.096 102.244 179.423 99.6931C178.75 97.1425 177.405 94.8978 175.386 92.9596C173.332 90.9869 170.978 89.6778 168.322 89.0314C165.666 88.3855 159.899 88.3855 157.244 89.0314C154.659 89.6778 152.34 90.9869 150.286 92.9596L139.291 103.519ZM88.3837 176.519C90.4017 178.458 92.7388 179.75 95.3946 180.396C98.0503 181.042 100.689 181.026 103.309 180.345C105.965 179.699 108.301 178.407 110.32 176.468C112.374 174.496 113.737 172.234 114.41 169.683C115.118 167.167 115.136 164.633 114.463 162.083C113.826 159.498 112.498 157.236 110.479 155.298L99.4844 144.738L88.3837 155.4C86.3652 157.338 85.002 159.566 84.2934 162.083C83.6207 164.633 83.6207 167.184 84.2934 169.735C84.9666 172.285 86.3298 174.547 88.3837 176.519ZM83.1251 103.519L99.4316 119.18L115.791 103.468L99.4844 87.8071L83.1251 103.519Z" fill="#7F46F0"/>
<path d="M237.721 123.836H221.737V78.745H237.853C242.389 78.745 246.293 79.6477 249.566 81.4531C252.84 83.2438 255.357 85.8198 257.118 89.1811C258.894 92.5424 259.782 96.5642 259.782 101.246C259.782 105.943 258.894 109.98 257.118 113.356C255.357 116.732 252.825 119.322 249.522 121.128C246.235 122.933 242.301 123.836 237.721 123.836ZM231.27 115.668H237.325C240.143 115.668 242.514 115.169 244.436 114.17C246.374 113.158 247.827 111.594 248.796 109.481C249.779 107.353 250.271 104.608 250.271 101.246C250.271 97.9145 249.779 95.1918 248.796 93.0781C247.827 90.9645 246.381 89.4086 244.458 88.4105C242.536 87.4124 240.165 86.9134 237.347 86.9134H231.27V115.668ZM261.478 78.745H272.156L282.438 98.1641H282.878L293.16 78.745H303.838L287.392 107.896V123.836H277.924V107.896L261.478 78.745ZM309.045 78.745H320.803L333.22 109.04H333.749L346.166 78.745H357.923V123.836H348.676V94.4872H348.302L336.633 123.616H330.336L318.667 94.3771H318.293V123.836H309.045V78.745ZM365.778 123.836V78.745H396.161V86.6051H375.311V97.3494H394.598V105.21H375.311V115.976H396.25V123.836H365.778ZM441.456 78.745V123.836H433.222L413.604 95.456H413.274V123.836H403.741V78.745H412.107L431.57 107.103H431.967V78.745H441.456ZM473.794 91.7131C473.617 89.937 472.861 88.5573 471.526 87.5739C470.19 86.5904 468.377 86.0987 466.088 86.0987C464.532 86.0987 463.218 86.3189 462.147 86.7592C461.075 87.1849 460.253 87.7794 459.681 88.5426C459.123 89.3059 458.844 90.1719 458.844 91.1406C458.815 91.9479 458.983 92.6525 459.35 93.2543C459.732 93.8561 460.253 94.3771 460.914 94.8175C461.574 95.2431 462.337 95.6174 463.203 95.9403C464.069 96.2486 464.994 96.5128 465.977 96.733L470.029 97.7017C471.995 98.142 473.801 98.7292 475.445 99.4631C477.089 100.197 478.513 101.1 479.716 102.171C480.92 103.243 481.852 104.505 482.512 105.958C483.187 107.411 483.532 109.077 483.547 110.956C483.532 113.715 482.828 116.108 481.433 118.134C480.054 120.144 478.058 121.708 475.445 122.823C472.847 123.924 469.713 124.474 466.044 124.474C462.403 124.474 459.233 123.917 456.532 122.801C453.846 121.686 451.747 120.034 450.235 117.847C448.738 115.646 447.953 112.923 447.879 109.679H457.105C457.207 111.191 457.64 112.453 458.404 113.466C459.182 114.464 460.216 115.22 461.508 115.734C462.814 116.233 464.29 116.482 465.933 116.482C467.548 116.482 468.95 116.247 470.139 115.778C471.342 115.308 472.274 114.655 472.935 113.818C473.595 112.982 473.926 112.02 473.926 110.934C473.926 109.921 473.625 109.07 473.023 108.38C472.436 107.69 471.57 107.103 470.425 106.619C469.295 106.134 467.908 105.694 466.264 105.298L461.354 104.065C457.552 103.14 454.551 101.694 452.349 99.7273C450.147 97.7604 449.054 95.111 449.068 91.7791C449.054 89.049 449.78 86.6638 451.248 84.6236C452.731 82.5833 454.763 80.9908 457.347 79.8459C459.93 78.701 462.866 78.1285 466.154 78.1285C469.5 78.1285 472.421 78.701 474.916 79.8459C477.426 80.9908 479.379 82.5833 480.773 84.6236C482.167 86.6638 482.887 89.027 482.931 91.7131H473.794ZM499.493 78.745V123.836H489.96V78.745H499.493ZM548.773 101.29C548.773 106.208 547.841 110.391 545.976 113.84C544.127 117.29 541.602 119.924 538.403 121.744C535.217 123.55 531.636 124.452 527.658 124.452C523.651 124.452 520.055 123.542 516.87 121.722C513.685 119.902 511.167 117.268 509.318 113.818C507.469 110.369 506.544 106.193 506.544 101.29C506.544 96.3733 507.469 92.1901 509.318 88.7408C511.167 85.2914 513.685 82.6641 516.87 80.8587C520.055 79.0386 523.651 78.1285 527.658 78.1285C531.636 78.1285 535.217 79.0386 538.403 80.8587C541.602 82.6641 544.127 85.2914 545.976 88.7408C547.841 92.1901 548.773 96.3733 548.773 101.29ZM539.107 101.29C539.107 98.1053 538.63 95.4193 537.676 93.2322C536.737 91.0452 535.408 89.3866 533.691 88.2564C531.974 87.1262 529.963 86.5611 527.658 86.5611C525.354 86.5611 523.343 87.1262 521.626 88.2564C519.908 89.3866 518.573 91.0452 517.618 93.2322C516.679 95.4193 516.209 98.1053 516.209 101.29C516.209 104.476 516.679 107.162 517.618 109.349C518.573 111.536 519.908 113.194 521.626 114.325C523.343 115.455 525.354 116.02 527.658 116.02C529.963 116.02 531.974 115.455 533.691 114.325C535.408 113.194 536.737 111.536 537.676 109.349C538.63 107.162 539.107 104.476 539.107 101.29ZM593.55 78.745V123.836H585.315L565.698 95.456H565.368V123.836H555.835V78.745H564.201L583.664 107.103H584.06V78.745H593.55Z" fill="white"/>
</g>
<defs>
<clipPath id="clip0_123_4">
<rect width="626" height="207" fill="white"/>
</clipPath>
</defs>
</svg>
